<svg xmlns="http://www.w3.org/2000/svg" viewBox="0 0 200 230">
  <ellipse cx="100" cy="36" rx="10" ry="6" fill="#F9A825"/>
  <rect x="93" y="36" width="14" height="10" rx="2" fill="#F9A825"/>
  <ellipse cx="100" cy="22" rx="9" ry="16" fill="#BF360C"/>
  <ellipse cx="99" cy="20" rx="6" ry="11" fill="#E65100"/>
  <ellipse cx="100" cy="17" rx="4" ry="8" fill="#FFC107"/>
  <ellipse cx="100" cy="14" rx="2" ry="4" fill="#FFF9C4"/>
  <circle cx="100" cy="128" r="80" fill="#1E3A6E"/>
  <circle cx="100" cy="128" r="71" fill="#FFFFFF"/>
  <circle cx="100" cy="128" r="63" fill="#1E3A6E"/>
  <circle cx="100" cy="128" r="55" fill="#FFFFFF"/>
  <line x1="72" y1="95" x2="97" y2="155" stroke="#1E3A6E" stroke-width="3.5" stroke-linecap="round"/>
  <path d="M58,82 C54,92 62,100 72,95 C66,88 62,80 58,82Z" fill="#1E3A6E"/>
  <line x1="128" y1="95" x2="103" y2="155" stroke="#1E3A6E" stroke-width="3.5" stroke-linecap="round"/>
  <path d="M142,82 C146,92 138,100 128,95 C134,88 138,80 142,82Z" fill="#1E3A6E"/>
  <polygon points="100,80 97,118 103,118" fill="#1E3A6E"/>
  <rect x="89" y="118" width="22" height="5" rx="2.5" fill="#1E3A6E"/>
  <rect x="97.5" y="123" width="5" height="15" rx="2" fill="#1E3A6E"/>
  <circle cx="100" cy="141" r="5" fill="#1E3A6E"/>
  <ellipse cx="100" cy="150" rx="2.5" ry="3.5" fill="#1E3A6E"/>
  <defs>
    <path id="ta" d="M26,128 A74,74 0 0,1 174,128"/>
    <path id="ba" d="M34,142 A74,74 0 0,0 166,142"/>
  </defs>
  <text font-size="14" font-weight="900" fill="white" letter-spacing="4" font-family="Arial Black,Arial,sans-serif">
    <textPath href="#ta" startOffset="10%">TANZANIA</textPath>
  </text>
  <text font-size="14" font-weight="900" fill="white" letter-spacing="5" font-family="Arial Black,Arial,sans-serif">
    <textPath href="#ba" startOffset="20%">POLISI</textPath>
  </text>
  <path d="M30,192 Q100,182 170,192 Q168,208 100,205 Q32,208 30,192Z" fill="#1E3A6E"/>
  <path d="M30,192 L16,204 L24,198 L20,210 L34,200Z" fill="#1E3A6E"/>
  <path d="M170,192 L184,204 L176,198 L180,210 L166,200Z" fill="#1E3A6E"/>
  <text x="100" y="200" text-anchor="middle" font-size="10" font-weight="800"
    fill="white" letter-spacing="1.5" font-family="Arial,sans-serif">USALAMA WA RAIA</text>
  <path d="M26,175 Q18,165 20,155 Q22,145 30,147 Q27,155 28,165Z" fill="#1E3A6E"/>
  <path d="M174,175 Q182,165 180,155 Q178,145 170,147 Q173,155 172,165Z" fill="#1E3A6E"/>
</svg>
