<svg xmlns="http://www.w3.org/2000/svg" viewBox="0 0 200 220">
  <!-- Torch -->
  <ellipse cx="100" cy="36" rx="10" ry="6" fill="#F9A825"/>
  <rect x="93" y="36" width="14" height="10" rx="2" fill="#F9A825"/>
  <ellipse cx="100" cy="22" rx="9" ry="16" fill="#E65100"/>
  <ellipse cx="98"  cy="20" rx="6" ry="11" fill="#F57C00"/>
  <ellipse cx="100" cy="18" rx="4" ry="8"  fill="#FFC107"/>
  <ellipse cx="101" cy="17" rx="2" ry="5"  fill="#FFF176"/>
  <!-- Outer ring -->
  <circle cx="100" cy="118" r="78" fill="#1E3A6E"/>
  <circle cx="100" cy="118" r="70" fill="white"/>
  <circle cx="100" cy="118" r="62" fill="#1E3A6E"/>
  <circle cx="100" cy="118" r="54" fill="white"/>
  <!-- Axes -->
  <line x1="68" y1="88" x2="100" y2="145" stroke="#1E3A6E" stroke-width="3" stroke-linecap="round"/>
  <path d="M60 82 Q55 90 68 88 Q65 78 60 82Z" fill="#1E3A6E"/>
  <path d="M60 82 Q70 76 68 88Z" fill="#1E3A6E"/>
  <line x1="132" y1="88" x2="100" y2="145" stroke="#1E3A6E" stroke-width="3" stroke-linecap="round"/>
  <path d="M140 82 Q145 90 132 88 Q135 78 140 82Z" fill="#1E3A6E"/>
  <path d="M140 82 Q130 76 132 88Z" fill="#1E3A6E"/>
  <!-- Sword -->
  <polygon points="100,72 96,110 100,115 104,110" fill="#1E3A6E"/>
  <rect x="90" y="110" width="20" height="4" rx="2" fill="#1E3A6E"/>
  <rect x="97" y="114" width="6" height="16" rx="2" fill="#1E3A6E"/>
  <circle cx="100" cy="132" r="4" fill="#1E3A6E"/>
  <circle cx="100" cy="140" r="2.5" fill="#1E3A6E"/>
  <!-- Text arcs -->
  <path id="t" d="M32,118 A68,68 0 0,1 168,118" fill="none"/>
  <text font-size="13" font-weight="800" fill="white" letter-spacing="3.5" font-family="Arial,sans-serif">
    <textPath href="#t" startOffset="12%">TANZANIA</textPath>
  </text>
  <path id="b" d="M38,130 A68,68 0 0,0 162,130" fill="none"/>
  <text font-size="13" font-weight="800" fill="white" letter-spacing="4" font-family="Arial,sans-serif">
    <textPath href="#b" startOffset="18%">POLISI</textPath>
  </text>
  <!-- Ribbon -->
  <path d="M28,178 Q100,168 172,178 Q170,192 100,188 Q30,192 28,178Z" fill="#1E3A6E"/>
  <path d="M28,178 L14,188 L22,184 L26,196 L34,182Z" fill="#1E3A6E"/>
  <path d="M172,178 L186,188 L178,184 L174,196 L166,182Z" fill="#1E3A6E"/>
  <text x="100" y="187" text-anchor="middle" font-size="9.5" font-weight="800"
    fill="white" letter-spacing="1.2" font-family="Arial,sans-serif">USALAMA WA RAIA</text>
  <!-- Horse heads -->
  <path d="M22,158 Q15,148 18,138 Q22,130 30,132 Q26,140 28,152Z" fill="#1E3A6E"/>
  <circle cx="20" cy="152" r="5" fill="#1E3A6E"/>
  <path d="M178,158 Q185,148 182,138 Q178,130 170,132 Q174,140 172,152Z" fill="#1E3A6E"/>
  <circle cx="180" cy="152" r="5" fill="#1E3A6E"/>
</svg>
